# xmcd
#
# Track frame offsets:
#	150
#	32385
#	49527
#	66162
#	84592
#	116062
#	132867
#	153065
#	167557
#	195180
#	213487
#	235280
#
# Disc length: 3541
#
# Revision: 1
# Processed by: cddbd v1.5.1PL0 Copyright (c) Steve Scherf et al.
# Submitted via: CDex 1.50
# Normalized: r0:DSETVAR1
#
DISCID=910dd30c
DTITLE=Various Artist - Jazz Ballads in a Midnight Mood
DYEAR=1900
DGENRE=Jazz
TTITLE0=Lee Morgan - I Remember Clifford
TTITLE1=Sonny Criss - Memories of You
TTITLE2=Clair Fisher - Quiet Nights
TTITLE3=Nancy Wilson - But Beautiful
TTITLE4=Dexter Gorrdon - Stairrway to the Stars
TTITLE5=Clifford Brown - Easy Living
TTITLE6=Art Pepper - Bewitched, Bothered and Bewildered
TTITLE7=Dinah Shore - That Old Feeling
TTITLE8=Stanley Turpentine - More Than You Know
TTITLE9=Miles Davis - It Never Entered My Mind
TTITLE10=Jimmy Smith - I Can't Get Started
TTITLE11=Sonny Clark - Deep In a Dream
EXTD=
EXTT0=
EXTT1=
EXTT2=
EXTT3=
EXTT4=
EXTT5=
EXTT6=
EXTT7=
EXTT8=
EXTT9=
EXTT10=
EXTT11=
PLAYORDER=
